<svg width="161" height="161" viewBox="0 0 161 161" fill="none" xmlns="http://www.w3.org/2000/svg">
<circle cx="80.5" cy="80.5" r="80.5" fill="#8257E6"/>
<path fill-rule="evenodd" clip-rule="evenodd" d="M35 61.4894C35 46.8597 46.8597 35 61.4894 35H98.8298C113.459 35 125.319 46.8597 125.319 61.4894V98.8298C125.319 113.459 113.459 125.319 98.8298 125.319H61.4894C46.8597 125.319 35 113.459 35 98.8298V61.4894ZM61.4894 43.2979C51.4425 43.2979 43.2979 51.4425 43.2979 61.4894V98.8298C43.2979 108.877 51.4425 117.021 61.4894 117.021H98.8298C108.877 117.021 117.021 108.877 117.021 98.8298V61.4894C117.021 51.4425 108.877 43.2979 98.8298 43.2979H61.4894Z" fill="white"/>
<path d="M109.362 56.2234C109.362 59.1317 107.004 61.4894 104.096 61.4894C101.187 61.4894 98.8298 59.1317 98.8298 56.2234C98.8298 53.3151 101.187 50.9575 104.096 50.9575C107.004 50.9575 109.362 53.3151 109.362 56.2234Z" fill="white"/>
<path fill-rule="evenodd" clip-rule="evenodd" d="M80.1596 95C88.3557 95 95 88.3557 95 80.1596C95 71.9634 88.3557 65.3192 80.1596 65.3192C71.9634 65.3192 65.3191 71.9634 65.3191 80.1596C65.3191 88.3557 71.9634 95 80.1596 95ZM80.1596 103.298C92.9385 103.298 103.298 92.9385 103.298 80.1596C103.298 67.3806 92.9385 57.0213 80.1596 57.0213C67.3806 57.0213 57.0213 67.3806 57.0213 80.1596C57.0213 92.9385 67.3806 103.298 80.1596 103.298Z" fill="white"/>
</svg>
