<svg width="239" height="44" viewBox="0 0 239 44" fill="none" xmlns="http://www.w3.org/2000/svg">
<path fill-rule="evenodd" clip-rule="evenodd" d="M26 8.11429H12.6286L0 21.4857L13.3714 21.4857L26 34.8571H39.3714L52 21.4857L38.6286 21.4857L26 8.11429Z" fill="#8257E6"/>
<path d="M63.268 35.432C61.276 35.432 59.344 35.168 57.472 34.64C55.624 34.088 54.136 33.38 53.008 32.516L54.988 28.124C56.068 28.916 57.352 29.552 58.84 30.032C60.328 30.512 61.816 30.752 63.304 30.752C64.96 30.752 66.184 30.512 66.976 30.032C67.768 29.528 68.164 28.868 68.164 28.052C68.164 27.452 67.924 26.96 67.444 26.576C66.988 26.168 66.388 25.844 65.644 25.604C64.924 25.364 63.94 25.1 62.692 24.812C60.772 24.356 59.2 23.9 57.976 23.444C56.752 22.988 55.696 22.256 54.808 21.248C53.944 20.24 53.512 18.896 53.512 17.216C53.512 15.752 53.908 14.432 54.7 13.256C55.492 12.056 56.68 11.108 58.264 10.412C59.872 9.716 61.828 9.368 64.132 9.368C65.74 9.368 67.312 9.56 68.848 9.944C70.384 10.328 71.728 10.88 72.88 11.6L71.08 16.028C68.752 14.708 66.424 14.048 64.096 14.048C62.464 14.048 61.252 14.312 60.46 14.84C59.692 15.368 59.308 16.064 59.308 16.928C59.308 17.792 59.752 18.44 60.64 18.872C61.552 19.28 62.932 19.688 64.78 20.096C66.7 20.552 68.272 21.008 69.496 21.464C70.72 21.92 71.764 22.64 72.628 23.624C73.516 24.608 73.96 25.94 73.96 27.62C73.96 29.06 73.552 30.38 72.736 31.58C71.944 32.756 70.744 33.692 69.136 34.388C67.528 35.084 65.572 35.432 63.268 35.432ZM85.361 15.344C88.361 15.344 90.665 16.064 92.273 17.504C93.881 18.92 94.685 21.068 94.685 23.948V35H89.429V32.588C88.373 34.388 86.405 35.288 83.525 35.288C82.037 35.288 80.741 35.036 79.637 34.532C78.557 34.028 77.729 33.332 77.153 32.444C76.577 31.556 76.289 30.548 76.289 29.42C76.289 27.62 76.961 26.204 78.305 25.172C79.673 24.14 81.773 23.624 84.605 23.624H89.069C89.069 22.4 88.697 21.464 87.953 20.816C87.209 20.144 86.093 19.808 84.605 19.808C83.573 19.808 82.553 19.976 81.545 20.312C80.561 20.624 79.721 21.056 79.025 21.608L77.009 17.684C78.065 16.94 79.325 16.364 80.789 15.956C82.277 15.548 83.801 15.344 85.361 15.344ZM84.929 31.508C85.889 31.508 86.741 31.292 87.485 30.86C88.229 30.404 88.757 29.744 89.069 28.88V26.9H85.217C82.913 26.9 81.761 27.656 81.761 29.168C81.761 29.888 82.037 30.464 82.589 30.896C83.165 31.304 83.945 31.508 84.929 31.508ZM88.637 13.256C87.989 13.256 87.413 13.136 86.909 12.896C86.429 12.632 85.889 12.284 85.289 11.852C84.905 11.564 84.581 11.348 84.317 11.204C84.077 11.06 83.837 10.988 83.597 10.988C83.093 10.988 82.685 11.168 82.373 11.528C82.061 11.864 81.893 12.356 81.869 13.004H79.025C79.073 11.396 79.469 10.124 80.213 9.188C80.981 8.228 81.989 7.748 83.237 7.748C83.861 7.748 84.413 7.88 84.893 8.144C85.397 8.384 85.961 8.732 86.585 9.188C86.969 9.476 87.281 9.692 87.521 9.836C87.785 9.98 88.037 10.052 88.277 10.052C88.757 10.052 89.153 9.884 89.465 9.548C89.801 9.188 89.981 8.708 90.005 8.108H92.849C92.801 9.668 92.393 10.916 91.625 11.852C90.881 12.788 89.885 13.256 88.637 13.256ZM109.195 35.288C107.155 35.288 105.319 34.868 103.687 34.028C102.079 33.164 100.819 31.976 99.9067 30.464C98.9947 28.952 98.5387 27.236 98.5387 25.316C98.5387 23.396 98.9947 21.68 99.9067 20.168C100.819 18.656 102.079 17.48 103.687 16.64C105.319 15.776 107.155 15.344 109.195 15.344C111.235 15.344 113.059 15.776 114.667 16.64C116.275 17.48 117.535 18.656 118.447 20.168C119.359 21.68 119.815 23.396 119.815 25.316C119.815 27.236 119.359 28.952 118.447 30.464C117.535 31.976 116.275 33.164 114.667 34.028C113.059 34.868 111.235 35.288 109.195 35.288ZM109.195 30.68C110.635 30.68 111.811 30.2 112.723 29.24C113.659 28.256 114.127 26.948 114.127 25.316C114.127 23.684 113.659 22.388 112.723 21.428C111.811 20.444 110.635 19.952 109.195 19.952C107.755 19.952 106.567 20.444 105.631 21.428C104.695 22.388 104.227 23.684 104.227 25.316C104.227 26.948 104.695 28.256 105.631 29.24C106.567 30.2 107.755 30.68 109.195 30.68ZM145.068 9.8C147.3 9.8 149.232 10.172 150.864 10.916C152.52 11.66 153.792 12.716 154.68 14.084C155.568 15.452 156.012 17.072 156.012 18.944C156.012 20.792 155.568 22.412 154.68 23.804C153.792 25.172 152.52 26.228 150.864 26.972C149.232 27.692 147.3 28.052 145.068 28.052H139.992V35H134.16V9.8H145.068ZM144.744 23.3C146.496 23.3 147.828 22.928 148.74 22.184C149.652 21.416 150.108 20.336 150.108 18.944C150.108 17.528 149.652 16.448 148.74 15.704C147.828 14.936 146.496 14.552 144.744 14.552H139.992V23.3H144.744ZM167.416 15.344C170.416 15.344 172.72 16.064 174.328 17.504C175.936 18.92 176.74 21.068 176.74 23.948V35H171.484V32.588C170.428 34.388 168.46 35.288 165.58 35.288C164.092 35.288 162.796 35.036 161.692 34.532C160.612 34.028 159.784 33.332 159.208 32.444C158.632 31.556 158.344 30.548 158.344 29.42C158.344 27.62 159.016 26.204 160.36 25.172C161.728 24.14 163.828 23.624 166.66 23.624H171.124C171.124 22.4 170.752 21.464 170.008 20.816C169.264 20.144 168.148 19.808 166.66 19.808C165.628 19.808 164.608 19.976 163.6 20.312C162.616 20.624 161.776 21.056 161.08 21.608L159.064 17.684C160.12 16.94 161.38 16.364 162.844 15.956C164.332 15.548 165.856 15.344 167.416 15.344ZM166.984 31.508C167.944 31.508 168.796 31.292 169.54 30.86C170.284 30.404 170.812 29.744 171.124 28.88V26.9H167.272C164.968 26.9 163.816 27.656 163.816 29.168C163.816 29.888 164.092 30.464 164.644 30.896C165.22 31.304 166 31.508 166.984 31.508ZM201.334 15.632V35H196.006V32.696C195.262 33.536 194.374 34.184 193.342 34.64C192.31 35.072 191.194 35.288 189.994 35.288C187.45 35.288 185.434 34.556 183.946 33.092C182.458 31.628 181.714 29.456 181.714 26.576V15.632H187.33V25.748C187.33 28.868 188.638 30.428 191.254 30.428C192.598 30.428 193.678 29.996 194.494 29.132C195.31 28.244 195.718 26.936 195.718 25.208V15.632H201.334ZM206.537 8.288H212.153V35H206.537V8.288ZM226.581 35.288C224.541 35.288 222.705 34.868 221.073 34.028C219.465 33.164 218.205 31.976 217.293 30.464C216.381 28.952 215.925 27.236 215.925 25.316C215.925 23.396 216.381 21.68 217.293 20.168C218.205 18.656 219.465 17.48 221.073 16.64C222.705 15.776 224.541 15.344 226.581 15.344C228.621 15.344 230.445 15.776 232.053 16.64C233.661 17.48 234.921 18.656 235.833 20.168C236.745 21.68 237.201 23.396 237.201 25.316C237.201 27.236 236.745 28.952 235.833 30.464C234.921 31.976 233.661 33.164 232.053 34.028C230.445 34.868 228.621 35.288 226.581 35.288ZM226.581 30.68C228.021 30.68 229.197 30.2 230.109 29.24C231.045 28.256 231.513 26.948 231.513 25.316C231.513 23.684 231.045 22.388 230.109 21.428C229.197 20.444 228.021 19.952 226.581 19.952C225.141 19.952 223.953 20.444 223.017 21.428C222.081 22.388 221.613 23.684 221.613 25.316C221.613 26.948 222.081 28.256 223.017 29.24C223.953 30.2 225.141 30.68 226.581 30.68Z" fill="white"/>
</svg>
